<?xml version="1.0" standalone="no"?>
<!DOCTYPE svg PUBLIC "-//W3C//DTD SVG 20010904//EN"
 "http://www.w3.org/TR/2001/REC-SVG-20010904/DTD/svg10.dtd">
<svg version="1.0" xmlns="http://www.w3.org/2000/svg"
 width="115.000000pt" height="115.000000pt" viewBox="0 0 115.000000 115.000000"
 preserveAspectRatio="xMidYMid meet">

<g transform="translate(0.000000,115.000000) scale(0.100000,-0.100000)"
fill="#000000" stroke="none">
<path d="M20 1040 l0 -100 93 0 c74 0 98 4 125 20 17 11 32 22 32 25 0 4 -4 3
-10 0 -5 -3 -18 -1 -27 5 -16 10 -16 11 -1 6 28 -8 11 19 -20 32 l-27 11 25
-1 c39 -1 40 0 30 26 -7 19 -4 30 11 50 l20 26 -125 0 -126 0 0 -100z m190
-30 c0 -5 -9 -10 -20 -10 -11 0 -20 5 -20 10 0 6 9 10 20 10 11 0 20 -4 20
-10z m17 -36 c-3 -3 -12 -4 -19 -1 -8 3 -5 6 6 6 11 1 17 -2 13 -5z"/>
<path d="M376 1103 c4 -21 10 -45 14 -53 12 -23 -7 -60 -30 -60 -25 0 -38 -29
-19 -41 8 -5 62 -9 122 -9 l107 0 0 100 0 100 -100 0 -101 0 7 -37z"/>
<path d="M707 873 c-12 -11 -8 -23 7 -23 7 0 19 7 26 15 10 12 9 15 -7 15 -11
0 -23 -3 -26 -7z"/>
<path d="M210 837 c-51 -26 -61 -93 -18 -129 24 -21 77 -23 102 -5 16 12 16
15 3 26 -10 8 -17 9 -22 1 -8 -14 -48 -13 -63 2 -7 7 -12 24 -12 40 0 37 33
55 66 37 17 -9 28 -9 35 -2 24 24 -52 50 -91 30z"/>
<path d="M28 765 c-25 -70 -26 -75 -9 -75 10 0 21 9 24 20 4 14 14 20 35 20
22 0 32 -6 37 -20 6 -19 35 -29 35 -11 0 5 -11 37 -24 72 -19 51 -28 65 -47
67 -21 2 -27 -5 -51 -73z m62 9 c0 -8 -6 -14 -14 -14 -9 0 -12 7 -9 20 6 22
23 18 23 -6z"/>
<path d="M346 769 c-31 -83 -30 -79 -10 -79 9 0 18 9 21 20 4 14 14 20 34 20
18 0 32 -7 39 -20 14 -25 45 -28 36 -2 -45 119 -51 132 -72 132 -18 0 -27 -13
-48 -71z m64 -1 c0 -5 -7 -8 -15 -8 -15 0 -20 21 -8 33 7 7 23 -11 23 -25z"/>
<path d="M500 765 l0 -75 43 0 c63 1 104 43 91 95 -9 36 -41 55 -91 55 l-43 0
0 -75z m88 33 c29 -29 7 -78 -35 -78 -21 0 -23 5 -23 45 0 40 2 45 23 45 13 0
28 -5 35 -12z"/>
<path d="M670 765 l0 -75 46 0 c50 0 59 22 11 28 -32 4 -36 29 -5 34 32 5 35
28 4 28 -19 0 -26 5 -26 20 0 16 7 20 30 20 17 0 30 5 30 10 0 6 -20 10 -45
10 l-45 0 0 -75z"/>
<path d="M790 765 c0 -60 3 -75 15 -75 11 0 15 13 15 53 l0 52 25 -30 25 -30
20 25 20 25 0 -47 c0 -36 4 -48 15 -48 12 0 15 15 15 75 0 69 -2 75 -20 75
-12 0 -25 -10 -32 -25 -6 -14 -15 -25 -20 -25 -5 0 -14 11 -20 25 -7 16 -19
25 -35 25 -22 0 -23 -3 -23 -75z"/>
<path d="M990 765 c0 -60 3 -75 15 -75 12 0 15 15 15 75 0 60 -3 75 -15 75
-12 0 -15 -15 -15 -75z"/>
<path d="M1060 765 l0 -75 45 0 c33 0 45 4 45 15 0 10 -10 15 -30 15 -20 0
-30 5 -30 15 0 9 9 15 25 15 32 0 34 27 3 32 -33 4 -29 32 5 36 44 5 31 22
-18 22 l-45 0 0 -75z"/>
<path d="M882 618 c-7 -7 -12 -24 -12 -39 0 -20 7 -30 30 -39 41 -17 40 -42
-2 -38 -38 4 -50 -19 -14 -28 67 -16 104 28 61 72 -13 13 -29 24 -35 24 -5 0
-10 7 -10 15 0 17 21 20 37 4 16 -16 28 8 13 26 -15 18 -52 19 -68 3z"/>
<path d="M20 544 l0 -77 52 5 c59 6 88 32 88 77 0 43 -37 71 -93 71 l-47 0 0
-76z m73 47 c52 -20 37 -91 -20 -91 -21 0 -23 5 -23 43 0 38 6 57 16 57 1 0
14 -4 27 -9z"/>
<path d="M190 545 l0 -75 45 0 c33 0 45 4 45 15 0 10 -10 15 -31 15 -24 0 -30
4 -27 18 2 9 13 18 26 20 31 5 28 22 -4 22 -36 0 -29 34 9 38 44 5 31 22 -18
22 l-45 0 0 -75z"/>
<path d="M380 545 c0 -60 3 -75 15 -75 10 0 15 10 15 29 0 25 5 31 30 36 21 5
32 14 36 31 9 35 -12 54 -57 54 l-39 0 0 -75z m59 42 c12 -15 5 -27 -16 -27
-7 0 -13 9 -13 20 0 23 13 26 29 7z"/>
<path d="M519 593 c-51 -132 -49 -123 -29 -123 10 0 22 9 25 20 5 14 15 20 37
20 21 0 31 -6 35 -20 3 -11 14 -20 24 -20 18 0 17 4 -6 66 -31 82 -32 84 -56
84 -12 0 -24 -10 -30 -27z m44 -33 c4 -15 0 -20 -13 -20 -13 0 -17 5 -13 20 3
11 9 20 13 20 4 0 10 -9 13 -20z"/>
<path d="M650 545 c0 -60 3 -75 15 -75 10 0 15 10 15 30 0 17 4 30 9 30 5 0
19 -13 31 -30 12 -16 30 -30 41 -30 19 0 18 2 -6 34 -16 21 -22 37 -16 41 17
10 13 62 -5 69 -9 3 -31 6 -50 6 l-34 0 0 -75z m65 34 c0 -7 -8 -15 -17 -17
-18 -3 -25 18 -11 32 10 10 28 1 28 -15z"/>
<path d="M800 545 c0 -60 3 -75 15 -75 12 0 15 15 15 75 0 60 -3 75 -15 75
-12 0 -15 -15 -15 -75z"/>
<path d="M152 329 c-14 -46 -10 -59 16 -43 20 13 29 54 12 54 -7 0 -10 7 -6
15 3 8 2 15 -2 15 -4 0 -13 -19 -20 -41z m26 -21 c-2 -6 -10 -14 -16 -16 -7
-2 -10 2 -6 12 7 18 28 22 22 4z"/>
<path d="M365 360 c-3 -5 -1 -10 4 -10 6 0 11 5 11 10 0 6 -2 10 -4 10 -3 0
-8 -4 -11 -10z"/>
<path d="M50 326 c-6 -19 -16 -37 -23 -40 -7 -2 5 -5 26 -5 20 -1 37 3 37 8 0
5 -9 7 -21 4 -20 -6 -20 -5 -5 31 8 20 11 36 6 36 -5 0 -14 -15 -20 -34z"/>
<path d="M307 343 c-2 -5 -7 -21 -11 -36 -5 -22 -4 -28 6 -24 7 2 12 10 10 17
-1 7 2 18 8 25 7 9 7 15 1 19 -5 4 -12 3 -14 -1z"/>
<path d="M115 325 c-3 -8 -7 -22 -10 -31 -3 -9 0 -14 7 -12 6 2 13 16 15 31 4
29 -5 37 -12 12z"/>
<path d="M212 328 c-14 -14 -16 -48 -3 -48 6 0 13 5 17 12 4 7 3 8 -4 4 -7 -4
-12 -3 -12 2 0 6 7 12 15 16 16 6 21 26 7 26 -4 0 -13 -5 -20 -12z"/>
<path d="M259 336 c0 -1 -3 -14 -5 -31 -6 -32 -6 -32 18 6 13 21 14 26 2 26
-8 0 -14 -1 -15 -1z"/>
<path d="M339 319 c-14 -27 4 -51 24 -30 8 10 8 12 0 7 -6 -3 -14 -2 -17 3 -3
5 4 11 15 14 12 3 18 10 14 16 -10 17 -23 13 -36 -10z"/>
<path d="M77 225 c-15 -14 -27 -32 -27 -40 0 -7 -7 -21 -16 -29 -14 -15 -12
-16 20 -16 19 0 37 4 40 9 3 4 -6 6 -19 3 -21 -3 -24 -1 -19 12 4 10 12 15 19
12 8 -3 16 1 19 9 3 9 0 12 -10 8 -21 -8 -17 7 8 34 29 31 20 29 -15 -2z"/>
<path d="M237 190 c-9 -24 -15 -45 -13 -48 8 -7 26 9 21 18 -3 5 -1 19 5 30 6
12 10 26 8 32 -2 6 -12 -9 -21 -32z"/>
<path d="M310 185 c-13 -35 -13 -48 3 -42 6 2 11 12 9 22 -2 10 2 21 8 25 9 5
9 9 1 14 -6 4 -15 -4 -21 -19z"/>
<path d="M124 183 c-3 -10 -10 -26 -15 -36 -11 -20 -4 -37 14 -37 8 0 8 3 -2
9 -10 7 -10 10 -1 16 7 4 16 2 20 -5 5 -9 9 -9 14 -1 4 6 1 14 -7 17 -7 2 -14
11 -14 19 0 8 4 12 8 10 3 -3 12 2 19 10 10 13 9 15 -9 15 -12 0 -24 -8 -27
-17z"/>
<path d="M182 187 c-19 -22 -17 -39 4 -43 18 -3 23 2 26 26 5 32 -11 41 -30
17z m10 -19 c-7 -7 -12 -8 -12 -2 0 6 3 14 7 17 3 4 9 5 12 2 2 -3 -1 -11 -7
-17z"/>
<path d="M269 198 c-7 -27 -5 -58 3 -56 13 5 20 58 7 58 -5 0 -9 -1 -10 -2z"/>
<path d="M350 185 c-14 -17 -5 -50 11 -39 8 5 8 9 -1 14 -8 5 -7 9 4 13 17 7
22 27 7 27 -5 0 -14 -7 -21 -15z"/>
<path d="M520 79 c0 -5 5 -7 10 -4 6 3 10 8 10 11 0 2 -4 4 -10 4 -5 0 -10 -5
-10 -11z"/>
<path d="M50 46 c-6 -19 -16 -37 -23 -40 -7 -2 -2 -5 10 -5 13 -1 22 2 22 7
-4 22 3 34 15 29 8 -3 17 0 20 8 3 10 0 12 -11 8 -12 -5 -15 -2 -10 10 3 9 2
17 -3 17 -4 0 -14 -15 -20 -34z"/>
<path d="M465 66 c-5 -6 -11 -23 -13 -38 -3 -23 0 -27 13 -22 12 5 13 9 5 14
-8 5 -7 11 3 22 9 8 12 19 9 25 -5 7 -10 7 -17 -1z"/>
<path d="M220 45 c-12 -33 -13 -45 -1 -45 15 0 23 18 10 22 -8 3 -6 9 5 20 10
10 12 19 6 23 -5 3 -15 -6 -20 -20z"/>
<path d="M119 56 c0 -1 -2 -14 -4 -31 -2 -17 -1 -23 2 -15 3 8 12 22 19 31 12
13 12 16 -1 16 -8 0 -15 -1 -16 -1z"/>
<path d="M162 48 c-20 -20 -14 -45 9 -43 16 1 23 9 25 28 3 29 -13 36 -34 15z
m10 -20 c-7 -7 -12 -8 -12 -2 0 14 12 26 19 19 2 -3 -1 -11 -7 -17z"/>
<path d="M255 39 c-8 -23 8 -48 19 -30 4 6 3 11 -3 11 -6 0 -8 7 -5 15 4 8 10
12 15 9 5 -3 9 0 9 5 0 20 -29 11 -35 -10z"/>
<path d="M309 56 c0 -1 -3 -14 -5 -31 -6 -32 -6 -32 18 6 13 21 14 26 2 26 -8
0 -14 -1 -15 -1z"/>
<path d="M347 34 c-5 -28 1 -30 20 -6 13 16 13 15 7 -7 -4 -17 -2 -22 7 -19 7
2 14 16 16 30 3 21 -1 26 -21 26 -17 0 -25 -7 -29 -24z"/>
<path d="M419 58 c-7 -23 -8 -58 -1 -54 13 8 22 56 11 56 -5 0 -9 -1 -10 -2z"/>
<path d="M495 40 c-7 -24 2 -43 17 -34 6 4 5 9 -3 15 -11 6 -10 9 4 15 21 8
23 24 3 24 -8 0 -17 -9 -21 -20z"/>
</g>
</svg>
