<?xml version="1.0" standalone="no"?>
<!DOCTYPE svg PUBLIC "-//W3C//DTD SVG 20010904//EN"
 "http://www.w3.org/TR/2001/REC-SVG-20010904/DTD/svg10.dtd">
<svg version="1.0" xmlns="http://www.w3.org/2000/svg"
 width="201.000000pt" height="262.000000pt" viewBox="0 0 201.000000 262.000000"
 preserveAspectRatio="xMidYMid meet">

<g transform="translate(0.000000,262.000000) scale(0.100000,-0.100000)"
fill="#000000" stroke="none">
<path d="M1128 2526 c-37 -20 -78 -36 -91 -36 -36 0 -206 -45 -264 -70 -34
-14 -50 -27 -49 -38 1 -12 -7 -17 -25 -18 -14 -1 -30 -4 -36 -7 -5 -3 -20 7
-32 23 -26 36 -59 43 -39 9 11 -17 10 -22 -6 -35 -11 -8 -29 -12 -40 -8 -19 5
-18 3 4 -14 21 -18 22 -22 10 -38 -8 -9 -33 -26 -55 -36 l-40 -19 49 5 c45 6
48 4 43 -14 -3 -11 -1 -20 3 -20 5 0 4 -13 -1 -30 -6 -16 -18 -30 -26 -30 -9
0 -11 -5 -7 -12 5 -7 7 -29 5 -50 -2 -36 10 -50 24 -28 4 6 10 8 15 5 5 -3 11
9 15 25 10 44 41 37 37 -9 -1 -20 2 -30 8 -26 5 3 10 22 10 41 0 27 -4 34 -20
34 -28 0 -26 8 20 79 22 33 40 65 40 69 0 4 3 7 8 7 4 0 27 15 51 33 72 52
170 95 221 95 25 0 88 -15 140 -33 93 -32 97 -35 183 -124 101 -103 122 -138
132 -216 4 -30 18 -90 31 -133 16 -51 24 -102 24 -147 0 -96 10 -114 87 -146
74 -32 98 -59 88 -103 -8 -37 -35 -61 -77 -70 -38 -8 -36 12 -23 -217 8 -138
6 -159 -41 -324 -28 -99 -30 -128 -7 -137 9 -4 56 -1 106 6 65 9 92 10 100 2
19 -19 44 -12 70 19 21 24 34 30 65 30 37 0 41 3 68 53 27 48 33 67 50 154 6
31 4 34 -40 52 -65 28 -62 63 11 142 l24 26 -5 204 c-3 112 -8 243 -13 290
l-8 86 -87 85 c-52 49 -88 92 -88 104 0 11 -20 54 -45 97 -25 42 -57 109 -71
149 -39 107 -50 127 -112 191 -69 70 -133 97 -247 104 -77 5 -82 4 -147 -31z"/>
<path d="M604 2455 c-8 -20 4 -35 26 -35 25 0 35 17 20 35 -16 19 -39 19 -46
0z"/>
<path d="M234 2257 c17 -13 18 -20 9 -66 -6 -28 -6 -51 -2 -51 8 0 29 63 29
88 0 6 12 12 28 13 l27 1 -25 7 c-14 4 -38 11 -55 15 -28 7 -28 6 -11 -7z"/>
<path d="M315 2171 c3 -18 5 -38 5 -44 0 -6 11 0 25 13 l25 23 0 -26 c0 -34 8
-34 37 0 23 26 23 47 1 25 -17 -17 -25 -15 -32 11 -6 21 -7 21 -20 5 -17 -24
-25 -23 -37 5 -8 18 -9 17 -4 -12z"/>
<path d="M444 2136 c-3 -21 -4 -39 -1 -42 2 -3 8 11 11 32 4 20 5 38 2 41 -2
3 -8 -11 -12 -31z"/>
<path d="M485 2129 c-4 -17 -4 -33 -1 -36 3 -4 6 3 6 13 0 11 5 25 11 31 7 7
7 13 1 17 -6 3 -13 -8 -17 -25z"/>
<path d="M666 2078 c-6 -28 -2 -48 8 -37 8 10 15 69 7 69 -5 0 -11 -14 -15
-32z"/>
<path d="M706 2078 c-8 -32 -7 -48 3 -48 5 0 11 14 15 30 8 45 36 39 37 -7 1
-38 1 -38 10 -9 10 35 -3 56 -36 56 -15 0 -25 -8 -29 -22z"/>
<path d="M807 2073 c-4 -3 -7 -19 -7 -34 0 -15 -4 -31 -10 -34 -5 -3 -10 -14
-10 -24 0 -25 40 -35 60 -15 13 13 12 17 -10 34 -19 15 -21 20 -8 20 24 0 52
41 35 52 -15 10 -41 10 -50 1z m33 -17 c0 -8 -4 -17 -9 -21 -12 -7 -24 12 -16
25 9 15 25 12 25 -4z m-11 -70 c9 -10 8 -15 -2 -19 -19 -7 -41 8 -33 22 10 15
21 14 35 -3z"/>
<path d="M989 1899 c-30 -11 -49 -46 -49 -89 0 -35 60 -99 111 -120 48 -20
169 13 169 46 0 26 -54 72 -98 84 -45 12 -51 20 -27 40 45 38 -32 66 -106 39z"/>
<path d="M652 1890 c-33 -14 -40 -41 -14 -58 30 -20 27 -36 -8 -49 -37 -14
-40 -46 -6 -69 21 -13 37 -14 107 -6 44 6 86 15 92 21 8 8 8 24 -2 58 -14 56
-34 81 -78 99 -37 16 -58 17 -91 4z"/>
<path d="M775 1407 c-24 -18 -14 -60 18 -74 20 -9 30 -8 55 7 39 24 55 53 40
68 -16 16 -90 15 -113 -1z"/>
<path d="M577 1374 c-17 -57 -27 -180 -17 -210 13 -38 48 -64 88 -64 53 0 59
22 24 98 -17 37 -40 92 -53 122 -27 67 -35 77 -42 54z"/>
<path d="M744 1230 c-34 -13 -38 -29 -11 -39 13 -5 34 -22 46 -38 41 -54 40
-54 109 -51 66 3 67 3 70 33 5 38 19 55 46 55 29 0 53 17 41 28 -14 13 -275
24 -301 12z"/>
<path d="M1145 984 c-52 -9 -117 -12 -187 -8 l-108 6 0 -32 c0 -24 12 -45 46
-83 55 -61 101 -97 126 -97 10 0 52 35 94 78 94 97 140 152 122 151 -7 -1 -49
-8 -93 -15z"/>
<path d="M524 881 c-18 -11 -33 -23 -35 -28 -7 -15 -93 -80 -134 -100 -22 -11
-76 -28 -120 -36 -77 -16 -82 -19 -132 -72 -56 -59 -73 -96 -54 -119 13 -16
101 -59 107 -53 2 2 -5 12 -16 22 -25 23 -27 65 -2 65 27 0 90 -57 103 -95 14
-39 53 -54 89 -35 55 30 159 -29 175 -99 7 -33 57 -71 93 -71 28 0 64 -32 79
-71 l12 -34 -2 35 c-3 47 27 55 37 9 3 -18 9 -30 11 -27 3 3 -1 25 -9 49 -7
24 -16 70 -19 102 -5 52 -3 59 15 66 46 17 357 -59 359 -88 0 -10 2 -12 6 -3
7 19 30 14 36 -8 3 -12 13 -20 24 -19 16 1 16 2 1 6 -10 2 -18 9 -18 14 0 12
27 12 35 -1 3 -6 19 -10 34 -10 15 0 31 -3 35 -7 3 -4 12 -8 19 -9 7 -1 64
-12 127 -23 171 -32 167 -31 180 -16 17 21 0 40 -64 72 -64 32 -94 61 -98 96
-2 15 -7 27 -11 27 -4 0 -10 0 -14 0 -4 0 -2 -5 5 -12 14 -14 16 -48 3 -48 -5
0 -16 11 -25 25 -9 13 -22 22 -29 20 -6 -3 -64 31 -127 74 -209 144 -550 376
-588 398 -45 28 -49 28 -88 4z m-186 -251 c32 -64 28 -177 -7 -156 -15 10 -50
93 -57 137 -13 81 26 93 64 19z m187 -21 c17 -52 -33 -149 -76 -149 -24 0 -24
11 0 58 10 20 21 54 25 75 5 27 12 37 26 37 10 0 22 -9 25 -21z m153 -177 c16
-11 7 -34 -20 -51 -107 -67 -149 -68 -97 -3 39 51 87 72 117 54z"/>
<path d="M694 889 c-3 -6 -3 -14 2 -18 5 -3 70 -46 144 -95 147 -97 221 -136
260 -136 l25 0 -30 29 c-17 16 -68 52 -115 79 -47 27 -123 72 -169 101 -87 53
-105 59 -117 40z"/>
<path d="M1528 690 c-24 -15 -108 -163 -115 -204 -4 -27 -2 -37 10 -42 11 -4
14 -14 10 -38 -6 -36 14 -61 44 -53 14 4 13 5 -4 6 -13 0 -23 7 -23 15 0 8 -3
22 -7 32 -4 12 -2 15 8 12 8 -3 13 -11 12 -17 -2 -6 2 -11 9 -11 21 0 100 -92
124 -144 18 -38 24 -69 24 -118 0 -60 2 -68 19 -68 10 0 34 17 51 37 66 75
109 201 125 369 7 70 6 70 -28 112 -71 84 -133 122 -199 122 -24 0 -50 -5 -60
-10z"/>
<path d="M446 355 c4 -8 10 -15 15 -15 4 0 6 7 3 15 -4 8 -10 15 -15 15 -4 0
-6 -7 -3 -15z"/>
<path d="M380 342 c0 -12 4 -22 9 -22 10 0 9 26 -2 36 -4 4 -7 -2 -7 -14z"/>
<path d="M411 348 c-1 -10 6 -18 14 -18 8 0 15 5 15 11 0 5 -4 8 -9 5 -5 -4
-12 0 -14 6 -3 8 -6 6 -6 -4z"/>
<path d="M350 330 c0 -11 4 -20 9 -20 5 0 7 9 4 20 -3 11 -7 20 -9 20 -2 0 -4
-9 -4 -20z"/>
<path d="M300 323 c0 -16 -2 -16 -11 -3 -9 12 -10 12 -7 1 7 -24 28 -25 28 -2
0 12 -2 21 -5 21 -3 0 -5 -8 -5 -17z"/>
<path d="M321 324 c0 -11 3 -14 6 -6 3 7 2 16 -1 19 -3 4 -6 -2 -5 -13z"/>
<path d="M1015 303 c0 -10 4 -24 9 -31 4 -6 4 -16 1 -22 -3 -5 -1 -10 5 -10 8
0 9 11 5 33 -8 36 -22 58 -20 30z"/>
<path d="M258 293 c7 -3 16 -2 19 1 4 3 -2 6 -13 5 -11 0 -14 -3 -6 -6z"/>
<path d="M437 280 c3 -11 9 -20 14 -20 11 0 11 3 3 24 -9 23 -23 20 -17 -4z"/>
<path d="M908 282 c19 -21 27 -20 19 3 -4 8 -13 15 -22 15 -13 0 -12 -3 3 -18z"/>
<path d="M872 275 c0 -11 4 -31 8 -45 6 -20 8 -21 8 -5 0 11 -4 31 -8 45 -6
20 -8 21 -8 5z"/>
<path d="M374 266 c-8 -22 3 -33 18 -18 9 9 9 15 0 24 -9 9 -13 7 -18 -6z"/>
<path d="M984 265 c-7 -17 3 -35 18 -35 7 0 6 5 -2 15 -6 8 -9 19 -5 25 3 5 4
10 0 10 -3 0 -8 -7 -11 -15z"/>
<path d="M340 261 c0 -4 -11 -6 -25 -3 -19 3 -25 0 -25 -13 0 -13 3 -15 13 -7
7 6 23 9 35 5 18 -4 21 -2 16 11 -7 17 -14 21 -14 7z"/>
<path d="M770 266 c0 -2 7 -7 16 -10 8 -3 12 -2 9 4 -6 10 -25 14 -25 6z"/>
<path d="M835 245 c4 -17 11 -34 16 -39 5 -5 4 5 -1 24 -12 42 -24 55 -15 15z"/>
<path d="M931 234 c0 -11 3 -14 6 -6 3 7 2 16 -1 19 -3 4 -6 -2 -5 -13z"/>
<path d="M782 229 c-26 -10 -27 -42 -2 -46 26 -5 41 12 33 34 -6 17 -12 19
-31 12z m18 -24 c0 -8 -7 -15 -15 -15 -8 0 -15 7 -15 15 0 8 7 15 15 15 8 0
15 -7 15 -15z"/>
<path d="M441 222 c-2 -21 30 -122 37 -121 4 0 16 4 27 9 18 8 17 9 -7 9 -19
1 -28 6 -29 19 -1 23 -27 100 -28 84z"/>
<path d="M632 205 c0 -11 3 -29 8 -40 11 -25 11 1 0 35 -6 20 -8 21 -8 5z"/>
<path d="M566 196 c3 -8 -3 -19 -15 -26 -12 -6 -21 -18 -20 -28 0 -14 2 -14 6
-2 12 32 48 41 40 10 -3 -11 0 -20 5 -20 6 0 8 12 4 31 -3 17 -6 35 -6 40 0 5
-4 9 -10 9 -5 0 -7 -6 -4 -14z"/>
</g>
</svg>
